<svg width="41" height="41" viewBox="0 0 41 41" fill="none" xmlns="http://www.w3.org/2000/svg">
<path fill-rule="evenodd" clip-rule="evenodd" d="M27.1293 7.78312C26.6611 7.78312 26.2815 7.40355 26.2815 6.93533V5.23975H24.586V6.93533C24.586 8.04273 25.2937 8.98486 26.2815 9.33398V10.3265H25.4338C24.9655 10.3265 24.586 10.706 24.586 11.1743V16.261C24.586 16.7293 24.9655 17.1088 25.4338 17.1088H28.8249C29.2932 17.1088 29.6727 16.7293 29.6727 16.261V11.1743C29.6727 10.706 29.2932 10.3265 28.8249 10.3265H27.9771V9.4787H32.2161V19.7085H17.0491C16.98 19.7085 16.9136 19.6808 16.8647 19.6315L16.5541 19.3188L16.8664 19.0068C18.1154 17.7588 18.1161 15.7348 16.8679 14.486L15.3417 12.9591C14.0937 11.7103 12.0695 11.7097 10.8205 12.9575L10.2236 13.554C9.08825 13.2313 7.81796 13.52 6.92395 14.4201C5.60475 15.7482 5.60475 17.9037 6.92395 19.2319L7.63014 19.9428V28.9779H5.08676V30.6735H7.67296C7.12335 31.2121 6.78234 31.9627 6.78234 32.793C6.78234 34.4317 8.11083 35.7602 9.74961 35.7602C11.3884 35.7602 12.7169 34.4317 12.7169 32.793C12.7169 31.9627 12.3759 31.2121 11.8263 30.6735H28.8677C28.3181 31.2121 27.9771 31.9627 27.9771 32.793C27.9771 34.4317 29.3056 35.7602 30.9444 35.7602C32.5832 35.7602 33.9117 34.4317 33.9117 32.793C33.9117 31.9627 33.5707 31.2121 33.0211 30.6735H35.6072V28.9779H32.2161V26.4343H32.2722C34.1141 26.4343 35.6072 24.9287 35.6072 23.0713C35.6072 21.815 34.9239 20.7195 33.9117 20.1421V9.4787C33.9117 8.54226 33.1526 7.78312 32.2161 7.78312H27.1293ZM11.7218 14.4539L15.3592 18.1158L15.668 17.8073C16.2545 17.2213 16.2548 16.271 15.6687 15.6847L14.1425 14.1577C13.5564 13.5712 12.6056 13.5709 12.019 14.157L11.7218 14.4539ZM13.798 26.1524C13.9773 26.3329 14.2203 26.4343 14.4737 26.4343H30.5205V28.9779H9.32572V21.6498L13.798 26.1524ZM15.6618 20.8265C16.0275 21.1947 16.5262 21.4041 17.0491 21.4041H32.2722C33.1643 21.4041 33.9117 22.1372 33.9117 23.0713C33.9117 24.0055 33.1644 24.7387 32.2722 24.7387H14.7837L8.12694 18.037C7.46454 17.37 7.46454 16.2819 8.12694 15.615C8.78008 14.9574 9.8321 14.9574 10.4852 15.615L15.6618 20.8265ZM11.0213 32.793C11.0213 33.4953 10.4519 34.0646 9.74961 34.0646C9.0473 34.0646 8.47793 33.4953 8.47793 32.793C8.47793 32.0907 9.0473 31.5213 9.74961 31.5213C10.4519 31.5213 11.0213 32.0907 11.0213 32.793ZM30.9444 34.0646C31.6467 34.0646 32.2161 33.4953 32.2161 32.793C32.2161 32.0907 31.6467 31.5213 30.9444 31.5213C30.2421 31.5213 29.6727 32.0907 29.6727 32.793C29.6727 33.4953 30.2421 34.0646 30.9444 34.0646ZM26.2815 15.4132V12.0221H27.9771V15.4132H26.2815Z" fill="#00244F"/>
</svg>
