<svg width="31" height="25" viewBox="0 0 31 25" fill="none" xmlns="http://www.w3.org/2000/svg">
<path d="M15.3333 18.5V5.5" stroke="#00244F" stroke-width="2" stroke-linecap="round" stroke-linejoin="round"/>
<path d="M19.1667 13.5C18.0611 13.2471 17.0901 12.7206 16.399 11.9995C15.7079 11.2784 15.334 10.4014 15.3333 9.5C15.3326 10.4014 14.9587 11.2784 14.2677 11.9995C13.5766 12.7206 12.6055 13.2471 11.5 13.5" stroke="#00244F" stroke-width="2" stroke-linecap="round" stroke-linejoin="round"/>
<path d="M22.4864 7.00001C22.7804 6.6015 22.9533 6.15539 22.9918 5.6962C23.0303 5.23702 22.9333 4.77705 22.7083 4.3519C22.4833 3.92675 22.1363 3.54781 21.6942 3.24439C21.2521 2.94097 20.7268 2.72121 20.1588 2.6021C19.5909 2.483 18.9955 2.46775 18.4188 2.55753C17.8421 2.64731 17.2995 2.83971 16.833 3.11986C16.3666 3.4 15.9887 3.76037 15.7286 4.1731C15.4686 4.58582 15.3333 5.03984 15.3334 5.50001C15.3334 5.03984 15.1981 4.58582 14.9381 4.1731C14.678 3.76037 14.3002 3.4 13.8337 3.11986C13.3672 2.83971 12.8246 2.64731 12.2479 2.55753C11.6712 2.46775 11.0758 2.483 10.5079 2.6021C9.9399 2.72121 9.41456 2.94097 8.97248 3.24439C8.53041 3.54781 8.18345 3.92675 7.95844 4.3519C7.73344 4.77705 7.63642 5.23702 7.6749 5.6962C7.71338 6.15539 7.88633 6.6015 8.18035 7.00001" stroke="#00244F" stroke-width="2" stroke-linecap="round" stroke-linejoin="round"/>
<path d="M22.9962 5.625C23.7472 5.77614 24.4445 6.05905 25.0352 6.45231C25.6259 6.84557 26.0945 7.33887 26.4055 7.89485C26.7165 8.45082 26.8617 9.05489 26.8303 9.66131C26.7988 10.2677 26.5914 10.8606 26.2238 11.395" stroke="#00244F" stroke-width="2" stroke-linecap="round" stroke-linejoin="round"/>
<path d="M23 18.5C24.1251 18.5 25.2187 18.2094 26.1113 17.6734C27.0039 17.1373 27.6455 16.3858 27.9367 15.5353C28.2279 14.6848 28.1524 13.7829 27.7219 12.9694C27.2914 12.1559 26.5299 11.4763 25.5556 11.036" stroke="#00244F" stroke-width="2" stroke-linecap="round" stroke-linejoin="round"/>
<path d="M25.5134 17.983C25.6029 18.5253 25.5495 19.0761 25.3563 19.6016C25.1632 20.127 24.8345 20.6159 24.3905 21.038C23.9465 21.4601 23.3966 21.8065 22.7748 22.0558C22.153 22.3051 21.4725 22.452 20.7754 22.4874C20.0782 22.5228 19.3792 22.446 18.7215 22.2616C18.0637 22.0773 17.4613 21.7895 16.9513 21.4158C16.4413 21.0421 16.0346 20.5906 15.7563 20.0891C15.478 19.5876 15.334 19.0468 15.3333 18.5C15.3326 19.0468 15.1886 19.5876 14.9103 20.0891C14.632 20.5906 14.2253 21.0421 13.7153 21.4158C13.2053 21.7895 12.6029 22.0773 11.9451 22.2616C11.2874 22.446 10.5884 22.5228 9.89122 22.4874C9.19406 22.452 8.51358 22.3051 7.89181 22.0558C7.27003 21.8065 6.72015 21.4601 6.27614 21.038C5.83213 20.6159 5.5034 20.127 5.31027 19.6016C5.11714 19.0761 5.0637 18.5253 5.15325 17.983" stroke="#00244F" stroke-width="2" stroke-linecap="round" stroke-linejoin="round"/>
<path d="M7.66667 18.5C6.54159 18.5 5.44795 18.2094 4.55537 17.6734C3.66279 17.1373 3.02115 16.3858 2.72995 15.5353C2.43875 14.6848 2.51427 13.7829 2.9448 12.9694C3.37532 12.1559 4.13679 11.4763 5.11112 11.036" stroke="#00244F" stroke-width="2" stroke-linecap="round" stroke-linejoin="round"/>
<path d="M7.67048 5.625C6.9194 5.77614 6.22212 6.05905 5.63144 6.45231C5.04076 6.84557 4.57217 7.33887 4.26117 7.89485C3.95016 8.45082 3.80489 9.05489 3.83636 9.66131C3.86783 10.2677 4.07522 10.8606 4.44281 11.395" stroke="#00244F" stroke-width="2" stroke-linecap="round" stroke-linejoin="round"/>
</svg>
