<svg width="36" height="37" viewBox="0 0 36 37" fill="none" xmlns="http://www.w3.org/2000/svg">
<path d="M9 27.5H21" stroke="#00244F" stroke-width="2" stroke-linecap="round" stroke-linejoin="round"/>
<path d="M4.5 33.5H31.5" stroke="#00244F" stroke-width="2" stroke-linecap="round" stroke-linejoin="round"/>
<path d="M21 33.5C23.7848 33.5 26.4555 32.3938 28.4246 30.4246C30.3938 28.4555 31.5 25.7848 31.5 23C31.5 20.2152 30.3938 17.5445 28.4246 15.5754C26.4555 13.6062 23.7848 12.5 21 12.5H19.5" stroke="#00244F" stroke-width="2" stroke-linecap="round" stroke-linejoin="round"/>
<path d="M13.5 21.5H16.5" stroke="#00244F" stroke-width="2" stroke-linecap="round" stroke-linejoin="round"/>
<path d="M13.5 18.5C12.7044 18.5 11.9413 18.1839 11.3787 17.6213C10.8161 17.0587 10.5 16.2956 10.5 15.5V9.5H19.5V15.5C19.5 16.2956 19.1839 17.0587 18.6213 17.6213C18.0587 18.1839 17.2956 18.5 16.5 18.5H13.5Z" stroke="#00244F" stroke-width="2" stroke-linecap="round" stroke-linejoin="round"/>
<path d="M18 9.5V5C18 4.60218 17.842 4.22064 17.5607 3.93934C17.2794 3.65804 16.8978 3.5 16.5 3.5H13.5C13.1022 3.5 12.7206 3.65804 12.4393 3.93934C12.158 4.22064 12 4.60218 12 5V9.5" stroke="#00244F" stroke-width="2" stroke-linecap="round" stroke-linejoin="round"/>
</svg>
