<svg width="288" height="261" viewBox="0 0 288 261" fill="none" xmlns="http://www.w3.org/2000/svg">
<path d="M19.0667 2.59999C15.6 3.79999 11.4667 6.73332 8.66667 10.0667C-0.133335 20.3333 -2.13334 35.4 2.66666 54.3333C4.13333 60.0667 5.33333 69.1333 5.33333 74.3333C5.33333 85 7.46667 89.2667 14.6667 93C17.6 94.4667 19.0667 97 21.3333 103.667C28.6667 125.8 43.8667 134.067 56.6667 122.867C64.5333 115.933 65.8667 102.6 60 91C57.7333 86.4667 49.8667 78.6 44.8 75.6667C43.6 74.8667 41.8667 71.6667 41.2 68.4667C40.4 65 37.3333 59.1333 34 54.6C28.8 47.8 28 45.8 28 40.3333C28 36.0667 28.8 33 30.5333 30.8667C33.0667 27.6667 33.0667 27.6667 38.2667 33.1333C41.0667 36.0667 46.4 43.2667 50 49.1333C59.6 64.7333 63.2 69 74.6667 77.6667C88.9333 88.6 91.4667 91.8 92.5333 101.267C94.1333 114.467 97.2 128.067 103.6 150.867C109.733 172.733 109.733 172.733 107.067 178.2C101.6 189.267 102.133 198.067 108.667 211.133C110.4 214.733 112.667 223.267 114 231.267C115.2 238.867 117.2 246.733 118.533 249C127.867 265 160.133 265 169.467 249C170.8 246.733 172.8 238.867 174 231.267C175.333 223.267 177.6 214.733 179.333 211.133C185.867 198.067 186.4 189.267 180.933 178.2C178.267 172.733 178.267 172.733 184.4 150.867C190.8 128.067 193.867 114.467 195.467 101.267C196.533 91.8 199.067 88.6 213.333 77.6667C224.667 69 228.4 64.7333 237.867 49.4C241.333 43.6667 246.533 36.4667 249.467 33.4C254.667 27.6667 254.667 27.6667 257.333 30.8667C259.2 33 260 35.9333 260 40.2C260 46.3333 258.667 49.2667 251.733 57.9333C249.733 60.3333 247.6 65.1333 246.8 68.3333C246.133 71.6667 244.4 74.8667 243.2 75.6667C237.867 78.7333 230.267 86.4667 227.733 91.5333C223.867 99 223.6 112.6 227.333 118.733C230.8 124.467 239.867 128.867 246 127.8C254.667 126.067 262.533 116.733 267.2 102.2C268.933 97 270.667 94.6 274.4 92.2C280.933 87.9333 282.667 84.0667 282.667 73C282.667 67.8 283.867 59.4 285.333 53.9333C293.467 24.6 281.2 0.33332 258 0.33332C246.667 0.33332 228.133 15.4 218.667 32.2C206.667 53.8 198.267 57.6667 181.2 49.6667C170 44.4667 153.467 40.3333 144 40.3333C134.533 40.3333 118 44.4667 106.8 49.6667C89.7333 57.6667 81.3333 53.8 69.3333 32.2C62.9333 20.8667 50.1333 7.93332 41.2 3.66665C33.0667 -0.0666803 27.2 -0.333347 19.0667 2.59999ZM37.0667 12.2C44.2667 15.9333 56.1333 28.4667 61.4667 37.8C75.2 62.6 89.6 68.6 110.8 58.6C116.4 55.9333 126.133 52.7333 132.4 51.5333C143.067 49.4 144.933 49.4 154.4 51.2667C160.133 52.4667 168.667 55 173.333 57C178.133 59 184.4 61.5333 187.333 62.6C200.533 67.4 215.2 58.2 226.533 37.8C232.533 27.1333 246.933 13.1333 254.267 11C259.333 9.39999 260.4 9.53332 266.133 12.4667C277.733 18.3333 281.067 31.4 276.133 51C274.667 57.1333 273.333 65.9333 273.333 70.7333C273.333 81 272 83.8 266.533 85C262.267 85.9333 261.6 87.1333 257.867 99.4C256.667 103.667 253.867 109.533 251.733 112.467C248.667 116.733 247.2 117.667 243.467 117.667C237.2 117.667 234.133 113.8 234.267 105.8C234.4 98.2 237.2 92.3333 242.8 88.0667C251.867 81.2667 256 76.6 256 73.1333C256 69 258.8 63 262 60.3333C266.4 56.7333 269.6 48.2 269.6 40.3333C269.6 27.4 263.467 19 254.133 19C249.067 19 240.933 27 232 40.8667C219.333 60.3333 218.533 61.4 208.667 68.8667C197.467 77.4 188.4 87 187.467 91.2667C187.067 93 185.6 101.533 184.133 110.333C182.667 119.133 178.8 135.933 175.467 147.667C172.133 159.4 169.333 170.733 169.333 172.733C169.333 174.733 170.533 178.733 172 181.667C175.733 189 175.333 196.467 170.8 206.867C168.533 211.933 165.867 221.267 164.667 228.867C163.467 236.2 161.867 243.267 161.2 244.6C156.667 253 131.333 253 126.8 244.6C126.133 243.267 124.533 236.2 123.333 228.867C122.133 221.267 119.467 211.933 117.2 206.867C112.667 196.467 112.267 189 116 181.667C119.733 174.467 119.467 171.667 113.333 150.333C110.267 140.067 106.667 125 105.2 117C103.6 108.867 101.733 99.1333 101.067 95.1333C99.6 86.8667 94 79.9333 80.5333 69.8C70.5333 62.2 66.4 57.4 57.8667 43.6667C49.2 29.5333 39.0667 19 34.1333 19C24.5333 19 18.1333 27.5333 18.2667 40.4667C18.4 48.0667 21.7333 56.7333 26 60.3333C29.2 63 32 69 32 73.1333C32 76.6 36.1333 81.2667 45.2 88.0667C50.8 92.3333 53.6 98.2 53.7333 105.8C53.8667 113.8 50.8 117.667 44.5333 117.667C40.8 117.667 39.3333 116.733 36.2667 112.467C34.1333 109.533 31.3333 103.667 30.1333 99.4C26.4 87.1333 25.7333 85.9333 21.4667 85C16 83.8 14.6667 81 14.6667 70.7333C14.6667 65.9333 13.3333 57.1333 11.8667 51C6.93333 31.8 10.2667 18.3333 21.3333 12.6C28.5333 8.99999 30.6667 8.99999 37.0667 12.2Z" fill="#00244F"/>
<path d="M113.467 70.0666C111.6 70.8666 109.6 73.2666 108.933 75.2666C108 78.4666 108.667 80.3333 114.4 88.8666C118.133 94.3333 122.4 102.333 124 106.6C131.2 125.8 136.4 152.467 138.4 179.8C139.2 189.933 139.867 193 141.733 194.2C145.333 196.467 148.667 193.667 148.933 187.533C150.667 160.6 155.2 133.4 160.933 115.667C165.067 102.733 168 96.5999 174.933 86.7333C179.6 80.1999 180.133 78.5999 179.067 75.3999C176.933 68.9999 173.733 68.3333 144 68.3333C124.933 68.3333 115.733 68.8666 113.467 70.0666ZM166.667 80.1999C166.667 80.8666 164.533 84.8666 162 89.1333C156.133 98.7333 152.667 107.8 148.267 125.267C146.267 132.867 144.267 139 143.867 139C143.467 139 142.267 135.533 141.333 131.267C137.333 113 126.8 86.1999 122.667 83.6666C122 83.2666 121.333 81.9333 121.333 80.8666C121.333 79.2666 125.2 78.9999 144 78.9999C156.533 78.9999 166.667 79.5333 166.667 80.1999Z" fill="#00244F"/>
</svg>
