<svg width="45" height="45" viewBox="0 0 45 45" fill="none" xmlns="http://www.w3.org/2000/svg">
<path d="M22.4209 13.158V20.6316" stroke="#00244F" stroke-width="2" stroke-linecap="round" stroke-linejoin="round"/>
<path d="M26.1577 39.3157V33.7104C26.1577 32.7194 25.764 31.7689 25.0632 31.0681C24.3624 30.3673 23.412 29.9736 22.4209 29.9736C21.4298 29.9736 20.4794 30.3673 19.7786 31.0681C19.0778 31.7689 18.6841 32.7194 18.6841 33.7104V39.3157" stroke="#00244F" stroke-width="2" stroke-linecap="round" stroke-linejoin="round"/>
<path d="M26.1577 16.8948H18.6841" stroke="#00244F" stroke-width="2" stroke-linecap="round" stroke-linejoin="round"/>
<path d="M33.6313 20.6316H37.3681C38.3592 20.6316 39.3097 21.0253 40.0105 21.7261C40.7113 22.4269 41.105 23.3773 41.105 24.3684V35.5788C41.105 36.5699 40.7113 37.5204 40.0105 38.2212C39.3097 38.922 38.3592 39.3157 37.3681 39.3157H7.47363C6.48257 39.3157 5.53209 38.922 4.8313 38.2212C4.13052 37.5204 3.73682 36.5699 3.73682 35.5788V18.7632C3.73682 17.7721 4.13052 16.8216 4.8313 16.1209C5.53209 15.4201 6.48257 15.0264 7.47363 15.0264H11.2104" stroke="#00244F" stroke-width="2" stroke-linecap="round" stroke-linejoin="round"/>
<path d="M33.6313 39.3157V9.42114C33.6313 8.43008 33.2376 7.4796 32.5368 6.77881C31.8361 6.07803 30.8856 5.68433 29.8945 5.68433H14.9473C13.9562 5.68433 13.0057 6.07803 12.3049 6.77881C11.6041 7.4796 11.2104 8.43008 11.2104 9.42114V39.3157" stroke="#00244F" stroke-width="2" stroke-linecap="round" stroke-linejoin="round"/>
</svg>
