<svg width="45" height="45" viewBox="0 0 45 45" fill="none" xmlns="http://www.w3.org/2000/svg">
<path d="M18.5146 9.82617C19.0321 9.72074 19.506 9.76808 19.9365 9.95117C20.3365 10.1213 20.691 10.4061 21.0088 10.7783C22.0177 10.4309 23.0288 10.4314 24.0508 10.7773C24.3926 10.3336 24.8395 10.011 25.3926 9.86133V9.8623C26.5083 9.54313 27.7444 10.1125 28.3115 11.1826H28.3125C28.8962 12.2713 28.7127 13.5247 27.8438 14.3867L27.8428 14.3857C27.7964 14.4349 27.7851 14.4543 27.7812 14.4658C27.7807 14.4676 27.774 14.4827 27.7969 14.5371L27.8018 14.5488L27.8936 14.8613C28.7537 18.09 26.6649 21.347 23.5498 21.96V21.959C20.4603 22.5752 17.654 20.5853 17.0234 17.335C16.8447 16.411 16.9105 15.5042 17.1855 14.6016C17.208 14.5221 17.2098 14.4887 17.2061 14.4668C17.2032 14.45 17.1935 14.4218 17.1406 14.3662V14.3652C16.4279 13.6311 16.1736 12.7285 16.4746 11.7422C16.7739 10.7112 17.4789 10.0373 18.5146 9.82617ZM19.8164 11.3467C19.2263 10.8489 18.3681 10.9755 17.8945 11.6553L17.8936 11.6543C17.4651 12.2747 17.5738 13.0525 18.1357 13.5479L18.2549 13.6436L18.373 13.7393C18.4826 13.8376 18.5647 13.9457 18.6064 14.0732C18.663 14.2464 18.636 14.4266 18.5576 14.6191L18.5566 14.6221C18.2531 15.325 18.1754 16.0622 18.2676 16.8555L18.2979 17.0605C18.6567 19.1597 20.4316 20.7533 22.4717 20.8125C22.906 20.729 23.3193 20.6823 23.7285 20.5547H23.7305C25.9482 19.901 27.4787 17.22 26.5742 14.8213L26.4795 14.5908C26.3983 14.4103 26.372 14.2295 26.4258 14.0596C26.479 13.8917 26.6028 13.7595 26.7705 13.6562L26.9141 13.5479C27.5894 12.9787 27.5992 11.9786 26.8975 11.3672C26.2829 10.8408 25.3864 10.9856 25.0264 11.6416L25.0254 11.6436C24.9538 11.7692 24.8885 11.8757 24.8213 11.958C24.7531 12.0416 24.676 12.1088 24.5791 12.1475C24.4818 12.1863 24.3801 12.1894 24.2734 12.1738C24.1688 12.1585 24.0498 12.1234 23.9141 12.0771H23.9131C23.36 11.8831 22.8011 11.7879 22.248 11.8662L22.249 11.8672C21.8468 11.9323 21.4585 12.0302 21.0674 12.1455L21.0654 12.1465C20.8513 12.2071 20.6613 12.2277 20.4912 12.1514C20.3231 12.0759 20.2083 11.9205 20.1025 11.7236V11.7227C20.0306 11.5863 19.9298 11.4502 19.8174 11.3467H19.8164Z" fill="#00244F" stroke="#00244F" stroke-width="0.3"/>
<path d="M23.0049 16.8711C23.2258 16.8711 23.4508 16.9202 23.6162 17.0234H23.6152C23.7756 17.1182 23.8693 17.2529 23.876 17.3975C23.8826 17.5426 23.8007 17.6824 23.6445 17.7861L23.6436 17.7852C23.5884 17.8248 23.5256 17.8537 23.4619 17.8789C23.4051 17.9013 23.349 17.9231 23.292 17.9482V18.4062C23.5689 18.3678 23.8014 18.2603 23.9717 18.0596L24.0215 18.0088C24.0726 17.9627 24.1278 17.9307 24.1865 17.917C24.2659 17.8985 24.3459 17.9142 24.4199 17.9609C24.494 18.0078 24.5414 18.0751 24.5488 18.1553C24.5561 18.2344 24.5232 18.3162 24.458 18.3916C24.1835 18.7096 23.8058 18.8827 23.3672 18.9404C22.856 19.0121 22.369 18.9596 21.9404 18.7168L21.7607 18.6016C21.6652 18.534 21.5889 18.4579 21.5225 18.374V18.373C21.4658 18.3042 21.4414 18.2284 21.4531 18.1543C21.4649 18.0801 21.5111 18.016 21.5791 17.9697C21.7039 17.8849 21.8598 17.8994 21.9795 17.9961L22.0283 18.042V18.043C22.2084 18.2457 22.4351 18.3587 22.7266 18.4043V17.9473C22.6643 17.9208 22.6084 17.9003 22.5469 17.874C22.4795 17.8452 22.4139 17.8123 22.3545 17.7686C22.2076 17.6644 22.1341 17.5283 22.1436 17.3877C22.1531 17.2483 22.2431 17.1189 22.3936 17.0244V17.0234C22.559 16.9202 22.784 16.8711 23.0049 16.8711Z" fill="#00244F" stroke="#00244F" stroke-width="0.1" stroke-linejoin="round"/>
<path d="M21.0078 14.7705C21.3497 14.7707 21.6714 15.0572 21.6494 15.4102L21.6475 15.4092C21.6447 15.5757 21.56 15.7335 21.4541 15.8477C21.3472 15.9629 21.1949 16.0605 21.0322 16.0703L21.0234 16.0713C20.8412 16.0713 20.6733 15.9683 20.5566 15.8428C20.4394 15.7165 20.3498 15.5421 20.3496 15.3613C20.3496 15.0178 20.6776 14.7705 21.0078 14.7705Z" fill="#00244F" stroke="#00244F" stroke-width="0.3"/>
<path d="M24 14.7705C24.3417 14.7705 24.6503 15.0235 24.6504 15.374C24.6504 15.5562 24.5723 15.7281 24.458 15.8535C24.3441 15.9784 24.1808 16.0713 24 16.0713C23.8274 16.0713 23.6693 15.9816 23.5566 15.8643C23.4435 15.7462 23.3612 15.584 23.3506 15.4102L23.3496 15.4014C23.3496 15.0486 23.6302 14.7705 24 14.7705Z" fill="#00244F" stroke="#00244F" stroke-width="0.3"/>
<path d="M26.1577 39.2366V33.6313C26.1577 32.6403 25.764 31.6898 25.0632 30.989C24.3624 30.2882 23.412 29.8945 22.4209 29.8945C21.4298 29.8945 20.4794 30.2882 19.7786 30.989C19.0778 31.6898 18.6841 32.6403 18.6841 33.6313V39.2366" stroke="#00244F" stroke-width="2" stroke-linecap="round" stroke-linejoin="round"/>
<path d="M33.6313 20.5525H37.3681C38.3592 20.5525 39.3097 20.9462 40.0105 21.647C40.7113 22.3478 41.105 23.2982 41.105 24.2893V35.4997C41.105 36.4908 40.7113 37.4413 40.0105 38.1421C39.3097 38.8429 38.3592 39.2366 37.3681 39.2366H7.47363C6.48257 39.2366 5.53209 38.8429 4.8313 38.1421C4.13052 37.4413 3.73682 36.4908 3.73682 35.4997V18.6841C3.73682 17.693 4.13052 16.7425 4.8313 16.0418C5.53209 15.341 6.48257 14.9473 7.47363 14.9473H11.2104" stroke="#00244F" stroke-width="2" stroke-linecap="round" stroke-linejoin="round"/>
<path d="M33.6313 39.2366V9.34204C33.6313 8.35097 33.2376 7.4005 32.5368 6.69971C31.8361 5.99892 30.8856 5.60522 29.8945 5.60522H14.9473C13.9562 5.60522 13.0057 5.99892 12.3049 6.69971C11.6041 7.4005 11.2104 8.35097 11.2104 9.34204V39.2366" stroke="#00244F" stroke-width="2" stroke-linecap="round" stroke-linejoin="round"/>
<path d="M16 24V29.5" stroke="#00244F" stroke-width="2" stroke-linecap="round" stroke-linejoin="round"/>
<path d="M18.5 26.9209H13.5" stroke="#00244F" stroke-width="2" stroke-linecap="round" stroke-linejoin="round"/>
</svg>
