<svg width="30" height="25" viewBox="0 0 30 25" fill="none" xmlns="http://www.w3.org/2000/svg">
<path d="M24.4907 13.5417C24.4907 18.75 20.2048 21.3542 15.1108 22.8646C14.844 22.9415 14.5543 22.9378 14.2903 22.8542C9.18401 21.3542 4.89813 18.75 4.89813 13.5417V6.25002C4.89813 5.97375 5.02715 5.7088 5.25679 5.51345C5.48644 5.3181 5.7979 5.20835 6.12267 5.20835C8.57174 5.20835 11.6331 3.95835 13.7638 2.37502C14.0232 2.18648 14.3532 2.08289 14.6944 2.08289C15.0356 2.08289 15.3657 2.18648 15.6251 2.37502C17.768 3.96877 20.8171 5.20835 23.2662 5.20835C23.591 5.20835 23.9024 5.3181 24.1321 5.51345C24.3617 5.7088 24.4907 5.97375 24.4907 6.25002V13.5417Z" stroke="#00244F" stroke-width="2" stroke-linecap="round" stroke-linejoin="round"/>
<path d="M14.6945 8.33337V12.5" stroke="#00244F" stroke-width="2" stroke-linecap="round" stroke-linejoin="round"/>
<path d="M14.6945 16.6666H14.7072" stroke="#00244F" stroke-width="2" stroke-linecap="round" stroke-linejoin="round"/>
</svg>
