<svg width="24" height="25" viewBox="0 0 24 25" fill="none" xmlns="http://www.w3.org/2000/svg">
<path d="M22 12.5H19.52C19.083 12.4991 18.6577 12.6413 18.3091 12.905C17.9606 13.1686 17.708 13.5392 17.59 13.96L15.24 22.32C15.2249 22.3719 15.1933 22.4175 15.15 22.45C15.1067 22.4825 15.0541 22.5 15 22.5C14.9459 22.5 14.8933 22.4825 14.85 22.45C14.8067 22.4175 14.7751 22.3719 14.76 22.32L9.24 2.68C9.22485 2.62807 9.19327 2.58246 9.15 2.55C9.10673 2.51754 9.05409 2.5 9 2.5C8.94591 2.5 8.89327 2.51754 8.85 2.55C8.80673 2.58246 8.77515 2.62807 8.76 2.68L6.41 11.04C6.29246 11.4592 6.04138 11.8285 5.69486 12.092C5.34835 12.3555 4.92532 12.4988 4.49 12.5H2" stroke="#00244F" stroke-width="2" stroke-linecap="round" stroke-linejoin="round"/>
</svg>
