<svg width="36" height="33" viewBox="0 0 36 33" fill="none" xmlns="http://www.w3.org/2000/svg">
<path d="M36 31.6896C35.9574 31.7535 35.9254 31.828 35.8828 31.9026C35.6272 32.4565 35.2011 32.7548 34.5833 32.7548C33.5927 32.7548 32.5914 32.7548 31.6008 32.7548C31.1002 32.7548 30.8019 32.4991 30.7913 32.073C30.7913 31.647 31.1002 31.3594 31.6115 31.3487C32.4636 31.3487 33.3264 31.3487 34.1785 31.3487C34.3064 31.3487 34.4342 31.3487 34.5727 31.3487V29.9746H1.44556V31.3487H1.88228C9.50897 31.3487 17.125 31.3487 24.7517 31.3487C24.9221 31.3487 25.1032 31.3487 25.2736 31.3913C25.6038 31.4765 25.8062 31.7854 25.7849 32.0943C25.7636 32.4352 25.4973 32.7015 25.1565 32.7441C25.0393 32.7548 24.9221 32.7441 24.805 32.7441C17.1037 32.7441 9.3918 32.7335 1.69055 32.7548C0.561461 32.7548 -0.0776471 32.0091 0.00756731 31.0718C0.0395227 30.7309 0.00756731 30.3901 0.00756731 30.0492C0.00756731 29.1012 0.593416 28.526 1.54143 28.5153C2.75573 28.5153 3.98069 28.5153 5.19499 28.5153C5.31216 28.5153 5.42933 28.5153 5.58911 28.5153C5.30151 27.791 5.29086 27.1093 5.59976 26.3956C4.87544 26.3956 4.20438 26.3956 3.52266 26.3956C2.30836 26.385 1.31774 25.5435 1.1047 24.3505C0.838408 22.9125 1.95685 21.5171 3.4268 21.4745C4.28959 21.4532 5.16304 21.4745 6.08975 21.4745C6.00453 21.3786 5.96192 21.3254 5.90867 21.2721C4.51328 20.1217 3.78896 18.6305 3.67179 16.8303C3.56527 15.1793 3.45875 13.5389 3.33093 11.8879C3.1605 9.82143 3.92743 8.24496 5.73824 7.13717C4.6411 6.14655 4.15112 4.9216 4.38546 3.4623C4.54523 2.49299 5.03522 1.68345 5.8128 1.0763C7.38927 -0.15931 9.62614 0.00046584 11.0215 1.43846C12.2784 2.73798 12.7258 5.21985 10.7446 7.12652C10.915 7.19043 11.0748 7.25434 11.2346 7.31825C12.6299 7.8615 13.8443 8.69234 14.8988 9.73621C15.4846 10.3221 16.1557 10.7162 16.9546 10.9186C17.7748 11.1316 18.5843 11.4298 19.3938 11.6961C20.8425 12.1648 21.3964 12.9424 21.3751 14.4869C21.3751 14.5189 21.3751 14.5508 21.4283 14.5082C23.4415 15.4562 25.4654 16.3936 27.5212 17.3629C27.3933 16.0527 27.7342 14.9449 28.6716 14.0502C29.3746 13.3898 30.2161 13.0489 31.1854 13.0489C33.1453 13.0383 34.7537 14.5082 34.9135 16.4788C35.0094 17.5866 34.6366 18.5559 33.859 19.3548C33.2305 20.0045 32.7938 20.1856 31.015 20.5158C32.1121 23.9138 31.1215 26.5554 28.0538 28.526H28.4905C30.3972 28.526 32.3038 28.5473 34.2212 28.526C35.084 28.5153 35.6911 28.8136 35.9893 29.6444V31.6789L36 31.6896ZM17.5404 12.6015C17.3594 12.5376 17.2209 12.4737 17.0718 12.4418C15.687 12.1542 14.5153 11.5044 13.578 10.4392C13.5354 10.3966 13.4927 10.3647 13.4501 10.3221C12.2145 9.21427 10.7659 8.5006 9.13616 8.1704C8.23076 7.98932 7.3147 7.91475 6.46256 8.39408C5.08848 9.15036 4.60914 10.3434 4.73697 11.8666C4.87544 13.4856 4.97131 15.1154 5.07782 16.7344C5.09913 17.022 5.18434 17.1073 5.47194 17.1179C7.03776 17.1605 8.60357 17.2138 10.18 17.267C10.2546 17.267 10.3292 17.2564 10.425 17.2457C10.1587 15.7012 9.90309 14.178 9.63679 12.6655C9.53028 12.069 9.6794 11.6642 10.1055 11.4192C10.5422 11.1636 10.9789 11.2275 11.4476 11.6322C12.3104 12.3672 13.1732 13.1128 14.0253 13.8585C14.1106 13.933 14.2064 14.0289 14.3129 14.0502C15.1331 14.2739 15.9533 14.4869 16.8161 14.7C17.0611 13.9863 17.2954 13.3046 17.5511 12.5909L17.5404 12.6015ZM11.192 13.2726C11.192 13.3898 11.192 13.443 11.192 13.4856C11.4156 14.7745 11.6287 16.0634 11.8737 17.3522C11.895 17.4694 12.0228 17.6079 12.14 17.6718C12.9921 18.1298 13.8656 18.5559 14.7177 19.0246C16.3048 19.898 17.1037 21.6556 16.6563 23.4025C16.5179 23.9564 16.209 24.4677 15.9746 25.0109C16.8374 25.0109 17.7428 25.0109 18.6482 25.0109C18.8293 25.0109 19.021 24.9576 19.1808 24.8831C20.7573 24.0948 22.3337 23.296 23.9102 22.4971C24.2724 22.316 24.6239 22.1243 25.0393 21.9219C24.8689 21.826 24.7624 21.7621 24.6558 21.6982C23.122 20.8673 21.5988 20.0259 20.0649 19.195C19.2447 18.7476 18.808 18.0659 18.7547 17.1392C18.7441 16.9688 18.7547 16.7984 18.7547 16.6492C17.1357 16.2338 15.5379 15.8397 13.9508 15.4136C13.7271 15.3497 13.4927 15.2325 13.3117 15.0834C12.6193 14.5082 11.9482 13.9117 11.2026 13.2726H11.192ZM20.491 25.8098C20.6508 25.927 20.7786 26.0122 20.8958 26.0867C21.9609 26.811 23.0261 27.5354 24.0913 28.249C24.2085 28.3236 24.4002 28.3875 24.528 28.3449C25.2417 28.1319 25.9767 27.9401 26.6477 27.6419C27.7129 27.1732 28.6822 26.5341 29.3213 25.5009C30.4611 23.6581 30.2054 21.7834 29.2042 20.0578C29.0337 19.7596 28.6822 19.5359 28.3627 19.3441C28.0005 19.1204 27.5851 18.9607 27.2016 18.7796C25.9021 18.1724 24.6026 17.5546 23.2818 16.9368C22.9942 17.5972 22.7172 18.2257 22.4296 18.8755C22.5787 18.9607 22.6959 19.0246 22.8131 19.0991C23.9209 19.7063 25.0286 20.3134 26.1364 20.91C26.5625 21.1336 26.8608 21.4319 26.8501 21.9432C26.8501 22.4438 26.5519 22.7421 26.1151 22.9657C24.7517 23.6475 23.3989 24.3398 22.0461 25.0215C21.5349 25.2772 21.0342 25.5435 20.4803 25.8204L20.491 25.8098ZM5.5252 18.5666C5.58911 18.6944 5.64237 18.8115 5.70628 18.9181C6.34539 20.1324 7.53839 20.6863 8.63552 21.336C9.11486 21.6236 9.6368 21.4319 10.1481 21.4851C10.2546 21.4958 10.3611 21.4851 10.4676 21.4851C10.8724 21.5065 11.1707 21.7834 11.1813 22.1562C11.192 22.529 10.9044 22.8379 10.5102 22.8805C10.3931 22.8912 10.2759 22.8805 10.1587 22.8805C8.00707 22.8805 5.8554 22.8805 3.70374 22.8805C2.99007 22.8805 2.47878 23.3386 2.48944 23.967C2.50009 24.5742 2.99007 25.0002 3.70374 25.0002C6.70755 25.0002 9.72201 25.0002 12.7258 25.0002C14.0147 25.0002 15.0053 24.2333 15.3036 23.0403C15.5805 21.9006 15.0373 20.7608 13.9295 20.175C13.056 19.7169 12.1932 19.2589 11.3091 18.8222C11.1494 18.737 10.9576 18.6944 10.7765 18.6837C9.54093 18.6305 8.29467 18.5879 7.05906 18.5559C6.55842 18.5452 6.05779 18.5559 5.5252 18.5559V18.5666ZM21.9396 28.5153C21.7905 28.4088 21.7053 28.3343 21.6094 28.2703C20.7999 27.7164 19.9903 27.1626 19.1702 26.63C18.9891 26.5128 18.7441 26.4276 18.531 26.4276C15.0586 26.4169 11.5861 26.4276 8.10294 26.4276C7.99642 26.4276 7.8899 26.4276 7.78338 26.4276C7.25079 26.4808 6.84602 26.8856 6.78211 27.3969C6.72885 27.8656 7.05906 28.3556 7.53839 28.494C7.70882 28.5366 7.8899 28.5366 8.06033 28.5366C12.5554 28.5366 17.0504 28.5366 21.5349 28.5366C21.6414 28.5366 21.7585 28.5366 21.9396 28.5153ZM8.23076 6.62589C9.60484 6.62589 10.702 5.5181 10.702 4.14402C10.702 2.76994 9.59419 1.6728 8.22011 1.6728C6.84602 1.6728 5.73824 2.79124 5.74889 4.15467C5.74889 5.52875 6.86733 6.62589 8.23076 6.62589ZM31.196 14.4656C29.9285 14.4656 28.8953 15.4988 28.8953 16.7664C28.8953 18.0446 29.9498 19.0991 31.228 19.0885C32.4956 19.0778 33.5288 18.034 33.5288 16.7771C33.5288 15.4988 32.4849 14.4656 31.196 14.4656ZM18.2008 15.0408C18.7441 15.2219 19.2341 15.3284 19.6708 14.8917C19.9903 14.5721 20.0756 14.1887 19.9158 13.7626C19.7454 13.2939 19.3619 13.1128 18.8719 13.0383C18.6589 13.6454 18.4565 14.2419 18.2541 14.8384C18.2328 14.8917 18.2221 14.9449 18.2008 15.0408ZM22.0035 16.3403C21.5349 16.074 21.0981 15.8823 20.6082 16.2019C20.2673 16.4255 20.0969 16.8197 20.1821 17.2351C20.2886 17.7996 20.736 17.9807 21.2047 18.1937C21.4816 17.5653 21.7479 16.9581 22.0142 16.351L22.0035 16.3403Z" fill="#00244F"/>
<path d="M28.9805 32.0624C28.9805 32.4565 28.6822 32.7548 28.2988 32.7548C27.9046 32.7548 27.5744 32.4352 27.5851 32.0411C27.5851 31.6683 27.9259 31.3487 28.2988 31.3594C28.6822 31.3594 28.9805 31.6789 28.9805 32.0624Z" fill="#00244F"/>
</svg>
