<svg width="36" height="37" viewBox="0 0 36 37" fill="none" xmlns="http://www.w3.org/2000/svg">
<g clip-path="url(#clip0_37_626)">
<path d="M18.9245 27.8971C18.1019 27.0742 16.9341 26.7527 15.7124 26.8976C15.5416 26.5708 15.5861 26.0133 16.2712 25.0565C17.8496 22.8568 22.7048 16.2511 22.7048 16.2511L35.8743 4.9865L34.8852 3.99678L24.9731 11.5568L32.5997 1.71022L31.4891 0.598999L20.045 13.5899C20.045 13.5899 13.5155 18.4961 11.3173 20.0753C10.361 20.7607 9.82805 20.842 9.50123 20.671C9.64608 19.4487 9.33698 18.2983 8.51433 17.4754C6.87661 15.8368 3.8692 16.1935 1.80426 18.2592C-0.260675 20.325 -0.602675 23.3428 1.03504 24.9814C2.67276 26.62 5.68608 26.2766 7.75073 24.2108C8.13323 23.828 8.55933 23.3108 8.82286 22.8762L9.47339 22.4909L11.2059 24.2243L12.5269 22.8431L11.4421 21.7577L19.1872 17.231L14.6627 24.9803L13.578 23.8949L12.1976 25.2165L13.9301 26.9499L13.5439 27.6001C13.1094 27.8639 12.6425 28.2383 12.26 28.6211C10.1954 30.6868 9.82439 33.7257 11.4621 35.3643C13.0998 37.0029 16.0988 36.6702 18.1635 34.6044C20.2278 32.538 20.5622 29.5357 18.9245 27.8971ZM2.14458 23.8786C1.06429 22.7978 1.36945 20.7359 2.82323 19.2816C4.2787 17.8253 6.33942 17.5201 7.4197 18.601C8.49998 19.6818 8.19483 21.7437 6.73936 23.1997C5.28558 24.6543 3.22486 24.9595 2.14458 23.8786ZM20.1153 16.3026C19.4884 15.6754 19.4884 14.6604 20.1111 14.0371C20.738 13.4099 21.7567 13.4057 22.3836 14.0329C23.0105 14.6601 23.0063 15.6793 22.3794 16.3065C21.7567 16.9298 20.7422 16.9298 20.1153 16.3026ZM12.4544 34.3707C11.3381 33.2538 11.6534 31.1228 13.1558 29.6195C14.6599 28.1145 16.7898 27.799 17.9061 28.9161C19.0224 30.0329 18.7071 32.164 17.203 33.6689C15.7005 35.1719 13.5709 35.4875 12.4544 34.3707ZM21.9665 15.8903C21.5714 16.2857 20.9276 16.2857 20.5296 15.8877C20.1316 15.4898 20.1319 14.8457 20.5271 14.4503C20.9248 14.0523 21.5714 14.0498 21.969 14.4477C22.367 14.8457 22.3642 15.4923 21.9665 15.8903Z" fill="#00244F"/>
</g>
<defs>
<clipPath id="clip0_37_626">
<rect width="36" height="36" fill="white" transform="translate(0 0.5)"/>
</clipPath>
</defs>
</svg>
