<svg width="36" height="37" viewBox="0 0 36 37" fill="none" xmlns="http://www.w3.org/2000/svg">
<path d="M16.5 3.5V6.5" stroke="#00244F" stroke-width="2" stroke-linecap="round" stroke-linejoin="round"/>
<path d="M7.5 3.5V6.5" stroke="#00244F" stroke-width="2" stroke-linecap="round" stroke-linejoin="round"/>
<path d="M7.5 5H6C5.20435 5 4.44129 5.31607 3.87868 5.87868C3.31607 6.44129 3 7.20435 3 8V14C3 16.3869 3.94821 18.6761 5.63604 20.364C7.32387 22.0518 9.61305 23 12 23C14.3869 23 16.6761 22.0518 18.364 20.364C20.0518 18.6761 21 16.3869 21 14V8C21 7.20435 20.6839 6.44129 20.1213 5.87868C19.5587 5.31607 18.7956 5 18 5H16.5" stroke="#00244F" stroke-width="2" stroke-linecap="round" stroke-linejoin="round"/>
<path d="M12 23C12 25.3869 12.9482 27.6761 14.636 29.364C16.3239 31.0518 18.6131 32 21 32C23.3869 32 25.6761 31.0518 27.364 29.364C29.0518 27.6761 30 25.3869 30 23V18.5" stroke="#00244F" stroke-width="2" stroke-linecap="round" stroke-linejoin="round"/>
<path d="M30 18.5C31.6569 18.5 33 17.1569 33 15.5C33 13.8431 31.6569 12.5 30 12.5C28.3431 12.5 27 13.8431 27 15.5C27 17.1569 28.3431 18.5 30 18.5Z" stroke="#00244F" stroke-width="2" stroke-linecap="round" stroke-linejoin="round"/>
</svg>
